<svg width="17.000000" height="17.000000" viewBox="0 0 17 17" fill="none" xmlns="http://www.w3.org/2000/svg" xmlns:xlink="http://www.w3.org/1999/xlink">
	<desc>
			Created with Pixso.
	</desc>
	<defs/>
	<path id="Vector" d="M2.58 12.58L1.33 12.58L1.33 3.41L7.83 3.41L7.16 4.08C7 4.25 6.91 4.41 6.91 4.66C6.91 5.16 7.25 5.5 7.75 5.5C8 5.5 8.16 5.41 8.33 5.25L10.41 3.16C10.75 2.83 10.75 2.33 10.41 2L8.33 -0.09C8 -0.42 7.5 -0.42 7.16 -0.09C6.83 0.25 6.83 0.75 7.16 1.08L7.83 1.75L0.5 1.75C0 1.75 -0.34 2.08 -0.34 2.58L-0.34 13.41C-0.34 13.91 0 14.25 0.5 14.25L2.58 14.25C3.08 14.25 3.41 13.91 3.41 13.41C3.41 12.91 3.08 12.58 2.58 12.58ZM15.5 1.75L13.41 1.75C12.91 1.75 12.58 2.08 12.58 2.58C12.58 3.08 12.91 3.41 13.41 3.41L14.66 3.41L14.66 12.58L7.66 12.58L8.33 11.91C8.66 11.58 8.66 11.08 8.33 10.75C8 10.41 7.5 10.41 7.16 10.75L5.08 12.83C4.75 13.16 4.75 13.66 5.08 14L7.16 16.08C7.33 16.25 7.5 16.33 7.75 16.33C8 16.33 8.16 16.25 8.33 16.08C8.66 15.75 8.66 15.25 8.33 14.91L7.66 14.25L15.5 14.25C16 14.25 16.33 13.91 16.33 13.41L16.33 2.58C16.33 2.08 16 1.75 15.5 1.75Z" fill="#72767C" fill-opacity="1.000000" fill-rule="nonzero"/>
</svg>
