<svg width="16.000000" height="16.000000" viewBox="0 0 16 16" fill="none" xmlns="http://www.w3.org/2000/svg" xmlns:xlink="http://www.w3.org/1999/xlink">
	<desc>
			Created with Pixso.
	</desc>
	<defs/>
	<rect id="icon" width="16.000000" height="16.000000" fill="#FFFFFF" fill-opacity="0"/>
	<rect id="Rectangle 516" width="16.000000" height="16.000000" fill="#FFFFFF" fill-opacity="0"/>
	<path id="Vector" d="M9.33 7.33L8.67 7.33L8.67 6.66C8.67 6.49 8.6 6.32 8.47 6.19C8.35 6.07 8.18 6 8 6C7.82 6 7.65 6.07 7.53 6.19C7.4 6.32 7.33 6.49 7.33 6.66L7.33 7.33L6.67 7.33C6.49 7.33 6.32 7.4 6.19 7.53C6.07 7.65 6 7.82 6 8C6 8.18 6.07 8.34 6.19 8.47C6.32 8.59 6.49 8.66 6.67 8.66L7.33 8.66L7.33 9.33C7.33 9.51 7.4 9.68 7.53 9.8C7.65 9.93 7.82 10 8 10C8.18 10 8.35 9.93 8.47 9.8C8.6 9.68 8.67 9.51 8.67 9.33L8.67 8.66L9.33 8.66C9.51 8.66 9.68 8.59 9.8 8.47C9.93 8.34 10 8.18 10 8C10 7.82 9.93 7.65 9.8 7.53C9.68 7.4 9.51 7.33 9.33 7.33ZM14.47 7.53L12.91 6L12.91 3.76C12.91 3.58 12.84 3.41 12.71 3.29C12.59 3.16 12.42 3.09 12.24 3.09L10.03 3.09L8.47 1.53C8.41 1.46 8.34 1.41 8.26 1.38C8.17 1.35 8.09 1.33 8 1.33C7.91 1.33 7.82 1.35 7.74 1.38C7.66 1.41 7.59 1.46 7.53 1.53L6 3.09L3.76 3.09C3.58 3.09 3.41 3.16 3.29 3.29C3.16 3.41 3.09 3.58 3.09 3.76L3.09 6L1.53 7.53C1.46 7.59 1.41 7.66 1.38 7.74C1.35 7.82 1.33 7.91 1.33 8C1.33 8.09 1.35 8.17 1.38 8.25C1.41 8.34 1.46 8.41 1.53 8.47L3.09 10.03L3.09 12.24C3.09 12.41 3.16 12.58 3.29 12.71C3.41 12.83 3.58 12.91 3.76 12.91L6 12.91L7.56 14.47C7.62 14.53 7.69 14.58 7.78 14.62C7.86 14.65 7.94 14.67 8.03 14.67C8.12 14.67 8.21 14.65 8.29 14.62C8.37 14.58 8.44 14.53 8.51 14.47L10.07 12.91L12.27 12.91C12.45 12.91 12.62 12.83 12.74 12.71C12.87 12.58 12.94 12.41 12.94 12.24L12.94 10.03L14.51 8.47C14.57 8.41 14.61 8.33 14.64 8.25C14.68 8.17 14.69 8.08 14.69 7.99C14.68 7.9 14.66 7.82 14.63 7.74C14.59 7.66 14.54 7.58 14.47 7.53ZM11.77 9.29C11.71 9.35 11.66 9.42 11.62 9.5C11.59 9.58 11.57 9.67 11.57 9.76L11.57 11.57L9.76 11.57C9.67 11.57 9.58 11.59 9.5 11.62C9.42 11.66 9.35 11.71 9.29 11.77L8 13.06L6.71 11.77C6.65 11.71 6.58 11.66 6.5 11.62C6.41 11.59 6.33 11.57 6.24 11.57L4.43 11.57L4.43 9.76C4.43 9.67 4.41 9.58 4.37 9.5C4.34 9.42 4.29 9.35 4.23 9.29L2.94 8L4.23 6.71C4.29 6.65 4.34 6.58 4.37 6.5C4.41 6.41 4.43 6.33 4.43 6.24L4.43 4.43L6.24 4.43C6.33 4.42 6.41 4.41 6.5 4.37C6.58 4.34 6.65 4.29 6.71 4.23L8 2.94L9.29 4.23C9.35 4.29 9.42 4.34 9.5 4.37C9.58 4.41 9.67 4.42 9.76 4.43L11.57 4.43L11.57 6.24C11.57 6.33 11.59 6.41 11.62 6.5C11.66 6.58 11.71 6.65 11.77 6.71L13.06 8L11.77 9.29Z" fill="#72767C" fill-opacity="1.000000" fill-rule="nonzero"/>
</svg>
