<svg width="11.000000" height="13.000000" viewBox="0 0 11 13" fill="none" xmlns="http://www.w3.org/2000/svg" xmlns:xlink="http://www.w3.org/1999/xlink">
	<desc>
			Created with Pixso.
	</desc>
	<defs/>
	<path id="Vector" d="M10.22 4.38C10.16 4.27 10.08 4.18 9.98 4.12C9.87 4.05 9.75 4.02 9.63 4.02L6.3 4.02L6.3 0.03C6.31 -0.12 6.27 -0.26 6.19 -0.38C6.1 -0.5 5.98 -0.59 5.84 -0.64C5.71 -0.68 5.57 -0.68 5.43 -0.64C5.3 -0.6 5.18 -0.51 5.1 -0.4L-0.22 6.92C-0.29 7.01 -0.33 7.12 -0.34 7.24C-0.35 7.36 -0.32 7.48 -0.27 7.58C-0.23 7.7 -0.15 7.81 -0.04 7.88C0.06 7.96 0.19 8 0.32 8.01L3.64 8.01L3.64 12C3.64 12.14 3.69 12.27 3.77 12.39C3.85 12.5 3.97 12.58 4.1 12.63C4.17 12.65 4.24 12.66 4.31 12.66C4.41 12.66 4.52 12.64 4.61 12.59C4.7 12.54 4.79 12.47 4.85 12.39L10.17 5.07C10.24 4.97 10.28 4.86 10.29 4.74C10.3 4.61 10.28 4.49 10.22 4.38ZM4.97 9.95L4.97 7.34C4.97 7.16 4.9 7 4.78 6.87C4.65 6.75 4.48 6.68 4.31 6.68L1.65 6.68L4.97 2.07L4.97 4.68C4.97 4.86 5.04 5.03 5.17 5.15C5.29 5.28 5.46 5.35 5.64 5.35L8.3 5.35L4.97 9.95Z" fill="#72767C" fill-opacity="1.000000" fill-rule="nonzero"/>
</svg>
