<svg width="29.000000" height="10.000000" viewBox="0 0 29 10" fill="none" xmlns="http://www.w3.org/2000/svg" xmlns:xlink="http://www.w3.org/1999/xlink">
	<desc>
			Created with Pixso.
	</desc>
	<defs/>
	<path id="132K" d="M5.93 8.82Q6.71 9.16 7.66 9.16Q8.74 9.16 9.48 8.76Q10.05 8.45 10.4 7.97Q10.51 7.83 10.6 7.67Q10.73 7.44 10.82 7.19Q10.98 6.71 10.98 6.18Q10.98 5.32 10.58 4.73Q10.51 4.63 10.43 4.54Q10.19 4.26 9.9 4.06Q9.52 3.82 9.05 3.72Q9.47 3.6 9.79 3.36Q10.02 3.18 10.21 2.93Q10.35 2.74 10.45 2.53Q10.64 2.09 10.64 1.56Q10.64 1.18 10.54 0.83Q10.45 0.55 10.3 0.29Q10.24 0.19 10.17 0.1Q9.84 -0.35 9.29 -0.63Q8.63 -0.97 7.65 -0.97Q6.74 -0.97 6.04 -0.62Q5.58 -0.4 5.25 -0.05Q5.07 0.14 4.94 0.36Q4.93 0.37 4.92 0.39Q4.54 1.01 4.51 1.84L5.98 1.84Q6.01 1.42 6.19 1.09Q6.3 0.9 6.46 0.74Q6.54 0.66 6.63 0.59Q7.03 0.3 7.65 0.3Q8.34 0.3 8.73 0.64Q8.75 0.66 8.77 0.68Q8.92 0.82 9.01 0.98Q9.17 1.28 9.17 1.66Q9.17 2.11 8.97 2.43Q8.85 2.62 8.66 2.77Q8.15 3.16 7.32 3.16L6.58 3.16L6.58 4.39L7.31 4.39Q8.21 4.39 8.84 4.8Q8.86 4.81 8.87 4.82Q9.08 4.97 9.22 5.16Q9.51 5.55 9.51 6.15Q9.51 6.62 9.32 6.99Q9.21 7.21 9.03 7.39Q8.98 7.45 8.92 7.49Q8.46 7.89 7.66 7.89Q6.86 7.89 6.38 7.5Q6.29 7.43 6.21 7.35Q6.01 7.14 5.88 6.89Q5.69 6.5 5.67 6.03L4.2 6.03Q4.23 7.08 4.69 7.78Q4.9 8.09 5.17 8.33Q5.5 8.63 5.93 8.82ZM12.62 7.93L12.62 9L19.23 9L19.23 7.76L14.74 7.76Q15.4 7.23 16.13 6.58Q16.51 6.23 16.87 5.86Q17.19 5.52 17.5 5.17Q18.13 4.42 18.53 3.6Q18.91 2.83 18.93 2.05Q18.93 2.01 18.93 1.97Q18.93 0.87 18.41 0.15Q18.27 -0.04 18.1 -0.2Q17.97 -0.32 17.82 -0.42Q17.04 -0.97 15.88 -0.97Q14.97 -0.97 14.25 -0.61Q13.93 -0.44 13.67 -0.22Q13.34 0.07 13.1 0.46Q12.67 1.15 12.66 2.19L14.1 2.19Q14.09 1.64 14.31 1.2Q14.4 1.01 14.53 0.85Q14.63 0.71 14.76 0.61Q15.18 0.29 15.85 0.29Q16.44 0.29 16.79 0.53Q16.96 0.65 17.08 0.81Q17.21 0.97 17.29 1.18Q17.32 1.24 17.34 1.31Q17.45 1.65 17.45 2.02Q17.45 2.7 17.06 3.42Q16.66 4.14 15.98 4.89Q15.31 5.64 14.44 6.41Q13.57 7.18 12.62 7.93ZM1 0.87L1 9L2.54 9L2.54 -0.8L1.59 -0.8L-0.58 0.15L-0.58 1.24L1 0.87ZM20.82 -0.8L20.82 9L22.31 9L22.31 5.33L23.31 4.23L26.28 9L28.09 9L24.38 3.1L28 -0.8L26.17 -0.8L22.31 3.4L22.31 -0.8L20.82 -0.8Z" fill="#72767C" fill-opacity="1.000000" fill-rule="evenodd"/>
</svg>
