<svg width="13.000000" height="16.000000" viewBox="0 0 13 16" fill="none" xmlns="http://www.w3.org/2000/svg" xmlns:xlink="http://www.w3.org/1999/xlink">
	<desc>
			Created with Pixso.
	</desc>
	<defs/>
	<path id="Vector" d="M6.38 -0.39C6.31 -0.46 6.22 -0.5 6.12 -0.5C6.02 -0.5 5.93 -0.46 5.86 -0.39C5.62 -0.1 0 6.61 0 9.82C0.01 11.43 0.67 12.96 1.82 14.09C2.96 15.22 4.51 15.84 6.12 15.83C7.73 15.84 9.28 15.22 10.42 14.09C11.57 12.96 12.23 11.43 12.25 9.82C12.25 6.61 6.62 -0.1 6.38 -0.39L6.38 -0.39ZM8.31 13.94C8.27 13.96 8.21 13.98 8.16 13.98C8 13.98 7.87 13.87 7.83 13.72C7.8 13.56 7.87 13.41 8.01 13.33C8.66 13.01 9.22 12.51 9.6 11.89C9.99 11.27 10.2 10.55 10.2 9.82C10.2 9.63 10.36 9.48 10.54 9.48C10.73 9.48 10.88 9.63 10.88 9.82C10.88 10.68 10.64 11.52 10.18 12.25C9.73 12.97 9.08 13.56 8.31 13.94L8.31 13.94Z" fill="#A162F7" fill-opacity="1.000000" fill-rule="nonzero"/>
</svg>
