<svg width="21.000000" height="21.000000" viewBox="0 0 21 21" fill="none" xmlns="http://www.w3.org/2000/svg" xmlns:xlink="http://www.w3.org/1999/xlink">
	<desc>
			Created with Pixso.
	</desc>
	<defs/>
	<path id="Vector" d="M6.5 4L4.7 4C6.2 2.7 8 2 10 2C10.29 2 10.6 2 10.89 2.09C11.39 2.2 11.89 1.79 12 1.2C12.1 0.7 11.7 0.2 11.1 0.09C10.7 0 10.39 0 10 0C7.6 0 5.29 0.9 3.5 2.4L3.5 1C3.5 0.4 3.1 0 2.5 0C1.89 0 1.5 0.4 1.5 1L1.5 5C1.5 5.59 1.89 6 2.5 6L6.5 6C7.1 6 7.5 5.59 7.5 5C7.5 4.4 7.1 4 6.5 4ZM5 12.5C4.39 12.5 4 12.9 4 13.5L4 15.29C2.7 13.79 2 12 2 10C2 9.7 2 9.4 2.1 9.09C2.2 8.59 1.79 8.09 1.2 8C0.7 7.9 0.2 8.29 0.1 8.9C0 9.29 0 9.59 0 10C0 12.4 0.89 14.7 2.39 16.5L1 16.5C0.39 16.5 0 16.9 0 17.5C0 18.09 0.39 18.5 1 18.5L5 18.5C5.29 18.5 5.6 18.29 5.79 18.09C5.79 18 5.89 17.9 5.89 17.79C5.89 17.7 5.89 17.7 5.89 17.59L5.89 17.5L5.89 13.5C6 12.9 5.6 12.5 5 12.5ZM19 3.5C19.6 3.5 20 3.09 20 2.5C20 1.9 19.6 1.5 19 1.5L15 1.5C14.89 1.5 14.89 1.5 14.79 1.5C14.7 1.5 14.6 1.59 14.5 1.59C14.39 1.7 14.29 1.7 14.29 1.79C14.29 1.9 14.2 2 14.2 2C14.2 2.09 14.2 2.09 14.2 2.2L14.2 2.29L14.2 6.29C14.2 6.9 14.6 7.29 15.2 7.29C15.79 7.29 16.2 6.9 16.2 6.29L16.2 4.7C17.5 6.09 18.2 8 18.2 10C18.2 10.29 18.2 10.59 18.1 10.9C18 11.4 18.39 11.9 19 12L19.1 12C19.6 12 20 11.59 20.1 11.09C20.1 10.7 20.2 10.4 20.2 10C20.2 7.59 19.29 5.29 17.79 3.5L19 3.5ZM18.29 14.5C18.2 14.4 18.1 14.29 18 14.2C17.89 14.09 17.79 14.09 17.7 14.09L17.6 14.09L17.5 14.09L13.5 14.09C12.89 14.09 12.5 14.5 12.5 15.09C12.5 15.7 12.89 16.09 13.5 16.09L15.29 16.09C13.89 17.4 12 18.09 10 18.09C9.7 18.09 9.39 18.09 9.1 18C8.6 17.9 8.1 18.29 8 18.9C7.89 19.5 8.29 19.9 8.89 20C9.29 20 9.6 20.09 10 20.09C12.39 20.09 14.7 19.2 16.5 17.7L16.5 19C16.5 19.59 16.89 20 17.5 20C18.1 20 18.5 19.59 18.5 19L18.5 15C18.5 14.79 18.39 14.59 18.29 14.5Z" fill="#72767C" fill-opacity="1.000000" fill-rule="nonzero"/>
</svg>
