<svg width="13.000000" height="18.000000" viewBox="0 0 13 18" fill="none" xmlns="http://www.w3.org/2000/svg" xmlns:xlink="http://www.w3.org/1999/xlink">
	<desc>
			Created with Pixso.
	</desc>
	<defs/>
	<path id="Vector" d="M7.19 17.5C6.79 17.5 4.62 17.28 4.5 17.25C1.96 16.74 0 12.86 0 8.5C0 4.13 1.96 0.26 4.49 -0.26C4.62 -0.29 6.79 -0.5 7.19 -0.5C10.18 -0.5 12.59 3.52 12.59 8.5C12.59 13.47 10.18 17.49 7.19 17.49L7.19 17.5ZM8.1 13.9C9.59 13.9 10.79 11.48 10.79 8.5C10.79 5.51 9.59 3.1 8.1 3.1C6.6 3.1 5.39 5.51 5.39 8.5C5.39 11.48 6.6 13.9 8.1 13.9ZM7.38 4.37C7.63 4.13 7.9 4 8.18 4C8.47 4 8.74 4.13 8.99 4.37C9.05 4.43 8.96 4.91 8.72 5.79C8.54 6.4 8.36 6.7 8.18 6.7C8.01 6.7 7.83 6.4 7.65 5.8C7.41 4.91 7.32 4.43 7.38 4.37L7.38 4.37ZM9.57 5.39C9.75 5.88 9.88 6.46 9.97 7.11C10.06 7.76 10.09 8.43 10.07 9.07C10.07 9.23 9.85 9.17 9.43 8.9C9.13 8.67 8.95 8.36 8.9 7.95C8.84 7.54 8.91 7.04 9.09 6.44C9.37 5.62 9.53 5.27 9.57 5.39L9.57 5.39ZM9.85 10.72C9.71 11.26 9.52 11.76 9.29 12.16C9.06 12.56 8.81 12.84 8.55 12.99C8.48 13.03 8.44 12.52 8.41 11.46C8.41 10.72 8.48 10.22 8.63 9.97C8.77 9.71 8.99 9.7 9.28 9.94C9.69 10.32 9.88 10.58 9.85 10.72L9.85 10.72ZM7.82 12.99C7.57 12.84 7.31 12.56 7.08 12.16C6.85 11.76 6.67 11.27 6.52 10.72C6.49 10.58 6.68 10.32 7.09 9.95C7.38 9.71 7.6 9.72 7.75 9.97C7.89 10.22 7.96 10.72 7.96 11.46C7.93 12.52 7.89 13.03 7.82 12.99L7.82 12.99ZM6.3 9.07C6.28 8.43 6.31 7.77 6.4 7.12C6.49 6.46 6.63 5.88 6.8 5.39C6.84 5.27 7 5.62 7.28 6.44C7.46 7.04 7.53 7.54 7.47 7.95C7.42 8.36 7.24 8.68 6.95 8.9C6.52 9.17 6.3 9.23 6.3 9.07L6.3 9.07Z" fill="#F6CC0D" fill-opacity="1.000000" fill-rule="evenodd"/>
</svg>
