<svg width="20.000000" height="20.000000" viewBox="0 0 20 20" fill="none" xmlns="http://www.w3.org/2000/svg" xmlns:xlink="http://www.w3.org/1999/xlink">
	<desc>
			Created with Pixso.
	</desc>
	<defs>
		<clipPath id="clip14_4918">
			<rect id="icons/Doughnut/Line" width="20.000000" height="20.000000" fill="white" fill-opacity="0"/>
		</clipPath>
	</defs>
	<g clip-path="url(#clip14_4918)">
		<path id="Shape" d="M10 18.33C14.6 18.33 18.33 14.6 18.33 10C18.33 5.39 14.6 1.66 10 1.66C5.39 1.66 1.66 5.39 1.66 10C1.66 14.6 5.39 18.33 10 18.33ZM15.26 14.08C16.14 12.96 16.66 11.54 16.66 10C16.66 6.6 14.12 3.79 10.83 3.38L10.83 6.77C12.27 7.14 13.33 8.44 13.33 10C13.33 10.61 13.16 11.19 12.87 11.69L15.26 14.08ZM14.08 15.26L11.69 12.87C11.19 13.16 10.61 13.33 10 13.33C9.38 13.33 8.8 13.16 8.3 12.87L5.91 15.26C7.04 16.14 8.45 16.66 10 16.66C11.54 16.66 12.95 16.14 14.08 15.26ZM6.66 10C6.66 10.61 6.83 11.19 7.12 11.69L4.73 14.08C3.85 12.96 3.33 11.54 3.33 10C3.33 6.6 5.87 3.79 9.16 3.38L9.16 6.77C7.72 7.14 6.66 8.44 6.66 10ZM10 11.66C10.92 11.66 11.66 10.92 11.66 10C11.66 9.08 10.92 8.33 10 8.33C9.07 8.33 8.33 9.08 8.33 10C8.33 10.92 9.07 11.66 10 11.66Z" fill="#72767C" fill-opacity="1.000000" fill-rule="evenodd"/>
	</g>
</svg>
