<svg width="20.000000" height="20.000000" viewBox="0 0 20 20" fill="none" xmlns="http://www.w3.org/2000/svg" xmlns:xlink="http://www.w3.org/1999/xlink">
	<desc>
			Created with Pixso.
	</desc>
	<defs>
		<clipPath id="clip14_4926">
			<rect id="icons/Car/Line" width="20.000000" height="20.000000" fill="white" fill-opacity="0"/>
		</clipPath>
	</defs>
	<rect id="icons/Car/Line" width="20.000000" height="20.000000" fill="#FFFFFF" fill-opacity="0"/>
	<g clip-path="url(#clip14_4926)">
		<path id="Vector" d="M17.31 7.62L16.16 4.2C16 3.71 15.68 3.27 15.26 2.97C14.83 2.66 14.32 2.5 13.79 2.5L6.2 2.5C5.67 2.5 5.16 2.66 4.73 2.97C4.31 3.27 3.99 3.71 3.83 4.2L2.68 7.62C2.38 7.75 2.12 7.97 1.94 8.24C1.76 8.51 1.66 8.83 1.66 9.16L1.66 13.33C1.66 13.96 2.01 14.5 2.53 14.78C2.52 14.84 2.5 14.89 2.5 14.94L2.5 16.66C2.5 16.88 2.58 17.09 2.74 17.25C2.9 17.41 3.11 17.5 3.33 17.5L4.16 17.5C4.38 17.5 4.59 17.41 4.75 17.25C4.91 17.09 5 16.88 5 16.66L5 15L15 15L15 16.66C15 16.88 15.08 17.09 15.24 17.25C15.4 17.41 15.61 17.5 15.83 17.5L16.66 17.5C16.88 17.5 17.09 17.41 17.25 17.25C17.41 17.09 17.5 16.88 17.5 16.66L17.5 14.94C17.5 14.89 17.47 14.83 17.46 14.78C17.72 14.64 17.94 14.43 18.09 14.17C18.25 13.92 18.33 13.63 18.33 13.33L18.33 9.16C18.33 8.47 17.9 7.88 17.31 7.62ZM3.33 13.33L3.33 9.16L16.66 9.16L16.66 13.33L3.33 13.33ZM6.2 4.16L13.79 4.16C14.15 4.16 14.47 4.39 14.58 4.73L15.51 7.5L4.48 7.5L5.4 4.73C5.46 4.57 5.57 4.42 5.71 4.32C5.85 4.22 6.02 4.16 6.2 4.16Z" fill="#72767C" fill-opacity="1.000000" fill-rule="nonzero"/>
		<path id="Vector" d="M6.66 11.25C6.66 11.94 6.1 12.5 5.41 12.5C4.72 12.5 4.16 11.94 4.16 11.25C4.16 10.55 4.72 10 5.41 10C6.1 10 6.66 10.55 6.66 11.25Z" fill="#72767C" fill-opacity="1.000000" fill-rule="evenodd"/>
		<path id="Vector" d="M15.83 11.25C15.83 11.94 15.27 12.5 14.58 12.5C13.89 12.5 13.33 11.94 13.33 11.25C13.33 10.55 13.89 10 14.58 10C15.27 10 15.83 10.55 15.83 11.25Z" fill="#72767C" fill-opacity="1.000000" fill-rule="evenodd"/>
	</g>
</svg>
