<svg width="20.000000" height="20.000000" viewBox="0 0 20 20" fill="none" xmlns="http://www.w3.org/2000/svg" xmlns:xlink="http://www.w3.org/1999/xlink">
	<desc>
			Created with Pixso.
	</desc>
	<defs>
		<clipPath id="clip14_4938">
			<rect id="icons/Shopping Cart/Line" width="20.000000" height="20.000000" fill="white" fill-opacity="0"/>
		</clipPath>
	</defs>
	<g clip-path="url(#clip14_4938)">
		<path id="Shape" d="M5.83 19.16C7.21 19.16 8.33 18.04 8.33 16.66C8.33 15.28 7.21 14.16 5.83 14.16C4.45 14.16 3.33 15.28 3.33 16.66C3.33 18.04 4.45 19.16 5.83 19.16ZM14.16 19.16C15.54 19.16 16.66 18.04 16.66 16.66C16.66 15.28 15.54 14.16 14.16 14.16C12.78 14.16 11.66 15.28 11.66 16.66C11.66 18.04 12.78 19.16 14.16 19.16ZM5.83 17.5C6.29 17.5 6.66 17.12 6.66 16.66C6.66 16.2 6.29 15.83 5.83 15.83C5.37 15.83 5 16.2 5 16.66C5 17.12 5.37 17.5 5.83 17.5ZM14.16 17.5C14.62 17.5 15 17.12 15 16.66C15 16.2 14.62 15.83 14.16 15.83C13.7 15.83 13.33 16.2 13.33 16.66C13.33 17.12 13.7 17.5 14.16 17.5Z" fill="#72767C" fill-opacity="1.000000" fill-rule="evenodd"/>
		<path id="Shape" d="M1.75 2.12C1.96 1.71 2.46 1.54 2.87 1.75L3.7 2.17C4.48 2.55 5 3.31 5.08 4.18L5.12 4.62C5.14 4.83 5.31 5 5.53 5L16.52 5C17.98 5 18.99 6.45 18.48 7.81L17.01 11.71C16.65 12.68 15.72 13.33 14.67 13.33L6.52 13.33C5.22 13.33 4.14 12.34 4.03 11.05L3.42 4.33C3.39 4.04 3.22 3.79 2.96 3.66L2.12 3.24C1.71 3.03 1.54 2.53 1.75 2.12ZM5.76 6.66C5.51 6.66 5.32 6.87 5.34 7.12L5.69 10.9C5.73 11.33 6.09 11.66 6.52 11.66L14.67 11.66C15.02 11.66 15.33 11.45 15.45 11.12L16.91 7.22C17.02 6.95 16.82 6.66 16.52 6.66L5.76 6.66Z" fill="#72767C" fill-opacity="1.000000" fill-rule="evenodd"/>
	</g>
</svg>
