<svg width="20.000000" height="20.000000" viewBox="0 0 20 20" fill="none" xmlns="http://www.w3.org/2000/svg" xmlns:xlink="http://www.w3.org/1999/xlink">
	<desc>
			Created with Pixso.
	</desc>
	<defs>
		<clipPath id="clip14_4953">
			<rect id="icons/Calendar/Line" width="20.000000" height="20.000000" fill="white" fill-opacity="0"/>
		</clipPath>
	</defs>
	<g clip-path="url(#clip14_4953)">
		<path id="Shape" d="M15.83 5L4.16 5C3.7 5 3.33 5.37 3.33 5.83L3.33 15.83C3.33 16.29 3.7 16.66 4.16 16.66L15.83 16.66C16.29 16.66 16.66 16.29 16.66 15.83L16.66 5.83C16.66 5.37 16.29 5 15.83 5ZM4.16 3.33C2.78 3.33 1.66 4.45 1.66 5.83L1.66 15.83C1.66 17.21 2.78 18.33 4.16 18.33L15.83 18.33C17.21 18.33 18.33 17.21 18.33 15.83L18.33 5.83C18.33 4.45 17.21 3.33 15.83 3.33L4.16 3.33Z" fill="#72767C" fill-opacity="1.000000" fill-rule="evenodd"/>
		<path id="Shape" d="M8.33 10C7.87 10 7.5 10.37 7.5 10.83C7.5 11.29 7.87 11.66 8.33 11.66L14.16 11.66C14.62 11.66 15 11.29 15 10.83C15 10.37 14.62 10 14.16 10L8.33 10ZM5.83 13.33C5.37 13.33 5 13.7 5 14.16C5 14.62 5.37 15 5.83 15L10.83 15C11.29 15 11.66 14.62 11.66 14.16C11.66 13.7 11.29 13.33 10.83 13.33L5.83 13.33Z" fill="#72767C" fill-opacity="1.000000" fill-rule="evenodd"/>
		<path id="Shape" d="M5.83 1.66C5.37 1.66 5 2.04 5 2.5L5 5.83C5 6.29 5.37 6.66 5.83 6.66C6.29 6.66 6.66 6.29 6.66 5.83L6.66 2.5C6.66 2.04 6.29 1.66 5.83 1.66ZM14.16 1.66C13.7 1.66 13.33 2.04 13.33 2.5L13.33 5.83C13.33 6.29 13.7 6.66 14.16 6.66C14.62 6.66 15 6.29 15 5.83L15 2.5C15 2.04 14.62 1.66 14.16 1.66Z" fill="#72767C" fill-opacity="1.000000" fill-rule="evenodd"/>
	</g>
</svg>
