<svg width="20.000000" height="20.000000" viewBox="0 0 20 20" fill="none" xmlns="http://www.w3.org/2000/svg" xmlns:xlink="http://www.w3.org/1999/xlink">
	<desc>
			Created with Pixso.
	</desc>
	<defs/>
	<rect id="dashboard icon" width="20.000000" height="20.000000" fill="#FFFFFF" fill-opacity="0"/>
	<path id="Shape" d="M14.58 12.5C14.2 12.5 13.67 12.55 13.12 12.62C12.86 12.66 12.66 12.86 12.62 13.11C12.55 13.67 12.5 14.2 12.5 14.58C12.5 14.96 12.55 15.49 12.62 16.04C12.66 16.3 12.86 16.5 13.12 16.53C13.67 16.61 14.2 16.66 14.58 16.66C14.96 16.66 15.49 16.61 16.04 16.53C16.3 16.5 16.5 16.3 16.53 16.04C16.61 15.49 16.66 14.96 16.66 14.58C16.66 14.2 16.61 13.67 16.53 13.11C16.5 12.86 16.3 12.66 16.04 12.62C15.49 12.55 14.96 12.5 14.58 12.5ZM12.89 10.97C11.89 11.11 11.11 11.89 10.97 12.89C10.89 13.46 10.83 14.08 10.83 14.58C10.83 15.07 10.89 15.69 10.97 16.27C11.11 17.27 11.89 18.05 12.89 18.18C13.46 18.26 14.09 18.33 14.58 18.33C15.07 18.33 15.69 18.26 16.27 18.18C17.27 18.05 18.05 17.27 18.18 16.27C18.26 15.69 18.33 15.07 18.33 14.58C18.33 14.08 18.26 13.46 18.18 12.89C18.05 11.89 17.27 11.11 16.27 10.97C15.69 10.89 15.07 10.83 14.58 10.83C14.09 10.83 13.46 10.89 12.89 10.97Z" fill="#5F6165" fill-opacity="1.000000" fill-rule="evenodd"/>
	<path id="Shape" d="M5.41 12.5C5.03 12.5 4.5 12.55 3.95 12.62C3.69 12.66 3.49 12.86 3.46 13.11C3.38 13.67 3.33 14.2 3.33 14.58C3.33 14.96 3.38 15.49 3.46 16.04C3.49 16.3 3.69 16.5 3.95 16.53C4.5 16.61 5.03 16.66 5.41 16.66C5.79 16.66 6.32 16.61 6.87 16.53C7.13 16.5 7.33 16.3 7.37 16.04C7.44 15.49 7.5 14.96 7.5 14.58C7.5 14.2 7.44 13.67 7.37 13.11C7.33 12.86 7.13 12.66 6.87 12.62C6.32 12.55 5.79 12.5 5.41 12.5ZM3.72 10.97C2.72 11.11 1.94 11.89 1.81 12.89C1.73 13.46 1.66 14.08 1.66 14.58C1.66 15.07 1.73 15.69 1.81 16.27C1.94 17.27 2.72 18.05 3.72 18.18C4.3 18.26 4.92 18.33 5.41 18.33C5.9 18.33 6.53 18.26 7.1 18.18C8.1 18.05 8.88 17.27 9.02 16.27C9.1 15.69 9.16 15.07 9.16 14.58C9.16 14.08 9.1 13.46 9.02 12.89C8.88 11.89 8.1 11.11 7.1 10.97C6.53 10.89 5.9 10.83 5.41 10.83C4.92 10.83 4.3 10.89 3.72 10.97Z" fill="#5F6165" fill-opacity="1.000000" fill-rule="evenodd"/>
	<path id="Shape" d="M14.58 3.33C14.2 3.33 13.67 3.38 13.12 3.46C12.86 3.49 12.66 3.69 12.62 3.95C12.55 4.5 12.5 5.04 12.5 5.41C12.5 5.79 12.55 6.32 12.62 6.88C12.66 7.13 12.86 7.33 13.12 7.37C13.67 7.44 14.2 7.5 14.58 7.5C14.96 7.5 15.49 7.44 16.04 7.37C16.3 7.33 16.5 7.13 16.53 6.88C16.61 6.32 16.66 5.79 16.66 5.41C16.66 5.04 16.61 4.5 16.53 3.95C16.5 3.69 16.3 3.49 16.04 3.46C15.49 3.38 14.96 3.33 14.58 3.33ZM12.89 1.81C11.89 1.94 11.11 2.72 10.97 3.72C10.89 4.3 10.83 4.92 10.83 5.41C10.83 5.91 10.89 6.53 10.97 7.1C11.11 8.1 11.89 8.88 12.89 9.02C13.46 9.1 14.09 9.16 14.58 9.16C15.07 9.16 15.69 9.1 16.27 9.02C17.27 8.88 18.05 8.1 18.18 7.1C18.26 6.53 18.33 5.91 18.33 5.41C18.33 4.92 18.26 4.3 18.18 3.72C18.05 2.72 17.27 1.94 16.27 1.81C15.69 1.73 15.07 1.66 14.58 1.66C14.09 1.66 13.46 1.73 12.89 1.81Z" fill="#5F6165" fill-opacity="1.000000" fill-rule="evenodd"/>
	<path id="Shape" d="M5.41 3.33C5.03 3.33 4.5 3.38 3.95 3.46C3.69 3.49 3.49 3.69 3.46 3.95C3.38 4.5 3.33 5.04 3.33 5.41C3.33 5.79 3.38 6.32 3.46 6.88C3.49 7.13 3.69 7.33 3.95 7.37C4.5 7.44 5.03 7.5 5.41 7.5C5.79 7.5 6.32 7.44 6.87 7.37C7.13 7.33 7.33 7.13 7.37 6.88C7.44 6.32 7.5 5.79 7.5 5.41C7.5 5.04 7.44 4.5 7.37 3.95C7.33 3.69 7.13 3.49 6.87 3.46C6.32 3.38 5.79 3.33 5.41 3.33ZM3.72 1.81C2.72 1.94 1.94 2.72 1.81 3.72C1.73 4.3 1.66 4.92 1.66 5.41C1.66 5.91 1.73 6.53 1.81 7.1C1.94 8.1 2.72 8.88 3.72 9.02C4.3 9.1 4.92 9.16 5.41 9.16C5.9 9.16 6.53 9.1 7.1 9.02C8.1 8.88 8.88 8.1 9.02 7.1C9.1 6.53 9.16 5.91 9.16 5.41C9.16 4.92 9.1 4.3 9.02 3.72C8.88 2.72 8.1 1.94 7.1 1.81C6.53 1.73 5.9 1.66 5.41 1.66C4.92 1.66 4.3 1.73 3.72 1.81Z" fill="#5F6165" fill-opacity="1.000000" fill-rule="evenodd"/>
</svg>
