<svg width="20.000000" height="20.000000" viewBox="0 0 20 20" fill="none" xmlns="http://www.w3.org/2000/svg" xmlns:xlink="http://www.w3.org/1999/xlink">
	<desc>
			Created with Pixso.
	</desc>
	<defs>
		<clipPath id="clip14_4974">
			<rect id="icons/Sign Out/Line" width="20.000000" height="20.000000" fill="white" fill-opacity="0"/>
		</clipPath>
	</defs>
	<g clip-path="url(#clip14_4974)">
		<path id="Shape" d="M9.19 12.5C9.65 12.48 10.03 12.84 10.05 13.3C10.09 14.33 10.14 15.09 10.2 15.63C10.25 16.17 10.57 16.49 11.02 16.54C11.55 16.61 12.3 16.66 13.33 16.66C14.35 16.66 15.1 16.61 15.63 16.54C16.08 16.49 16.41 16.17 16.46 15.63C16.56 14.62 16.66 12.89 16.66 10C16.66 7.1 16.56 5.36 16.46 4.36C16.41 3.82 16.08 3.5 15.63 3.45C15.1 3.38 14.35 3.33 13.33 3.33C12.3 3.33 11.55 3.38 11.02 3.45C10.57 3.5 10.25 3.82 10.2 4.36C10.14 4.9 10.09 5.66 10.05 6.69C10.03 7.15 9.65 7.51 9.19 7.49C8.73 7.48 8.37 7.09 8.38 6.63C8.43 5.57 8.48 4.77 8.54 4.19C8.66 2.97 9.52 1.95 10.82 1.79C11.43 1.72 12.25 1.66 13.33 1.66C14.41 1.66 15.23 1.72 15.84 1.79C17.14 1.95 18 2.97 18.12 4.19C18.22 5.27 18.33 7.07 18.33 10C18.33 12.92 18.22 14.72 18.12 15.8C18 17.02 17.14 18.04 15.84 18.2C15.23 18.27 14.41 18.33 13.33 18.33C12.25 18.33 11.43 18.27 10.82 18.2C9.52 18.04 8.66 17.02 8.54 15.8C8.48 15.21 8.43 14.42 8.38 13.36C8.37 12.9 8.73 12.51 9.19 12.5Z" fill="#72767C" fill-opacity="1.000000" fill-rule="evenodd"/>
		<path id="Shape" d="M6 12.32C6.33 12.65 6.33 13.18 6 13.5C5.68 13.83 5.15 13.83 4.82 13.5L1.91 10.58C1.58 10.26 1.58 9.73 1.91 9.41L4.82 6.49C5.15 6.16 5.68 6.16 6 6.49C6.33 6.81 6.33 7.34 6 7.67L4.51 9.16L12.5 9.16C12.96 9.16 13.33 9.54 13.33 10C13.33 10.46 12.96 10.83 12.5 10.83L4.51 10.83L6 12.32Z" fill="#72767C" fill-opacity="1.000000" fill-rule="evenodd"/>
	</g>
</svg>
