<svg width="17.000000" height="17.000000" viewBox="0 0 17 17" fill="none" xmlns="http://www.w3.org/2000/svg" xmlns:xlink="http://www.w3.org/1999/xlink">
	<desc>
			Created with Pixso.
	</desc>
	<defs/>
	<path id="Shape" d="M3.83 11.25L3.83 13.82L8.05 11.33L8.49 11.33C10.24 11.3 11.82 11.12 13 10.94C13.74 10.83 14.26 10.31 14.37 9.65C14.53 8.75 14.66 7.6 14.66 6.33C14.66 5.05 14.53 3.91 14.37 3C14.26 2.35 13.74 1.83 13 1.72C11.71 1.52 9.94 1.33 8 1.33C6.05 1.33 4.28 1.52 2.99 1.72C2.25 1.83 1.73 2.35 1.62 3C1.46 3.91 1.33 5.05 1.33 6.33C1.33 7.6 1.46 8.75 1.62 9.65C1.71 10.22 2.11 10.68 2.69 10.87L3.83 11.25ZM-0.03 2.72C0.22 1.32 1.33 0.28 2.74 0.07C4.09 -0.14 5.94 -0.34 8 -0.34C10.05 -0.34 11.9 -0.14 13.25 0.07C14.66 0.28 15.77 1.32 16.02 2.72C16.18 3.7 16.33 4.94 16.33 6.33C16.33 7.72 16.18 8.96 16.02 9.94C15.77 11.34 14.66 12.37 13.25 12.59C12.01 12.78 10.36 12.96 8.52 12.99L3.42 16C2.86 16.33 2.16 15.93 2.16 15.29L2.16 12.45C1.03 12.07 0.18 11.14 -0.03 9.94C-0.19 8.96 -0.34 7.72 -0.34 6.33C-0.34 4.94 -0.19 3.7 -0.03 2.72Z" fill="#72767C" fill-opacity="1.000000" fill-rule="evenodd"/>
</svg>
