<svg width="20.000000" height="20.000000" viewBox="0 0 20 20" fill="none" xmlns="http://www.w3.org/2000/svg" xmlns:xlink="http://www.w3.org/1999/xlink">
	<desc>
			Created with Pixso.
	</desc>
	<defs>
		<clipPath id="clip14_4932">
			<rect id="icons/Shopping Bag/Line" width="20.000000" height="20.000000" fill="white" fill-opacity="0"/>
		</clipPath>
	</defs>
	<g clip-path="url(#clip14_4932)">
		<path id="Shape" d="M14.78 6.66L5.21 6.66C4.25 6.66 3.49 7.47 3.55 8.43L3.96 15.1C4.02 15.98 4.75 16.66 5.63 16.66L14.36 16.66C15.24 16.66 15.97 15.98 16.03 15.1L16.44 8.43C16.5 7.47 15.74 6.66 14.78 6.66ZM5.21 5C3.29 5 1.76 6.62 1.88 8.54L2.3 15.2C2.41 16.96 3.87 18.33 5.63 18.33L14.36 18.33C16.12 18.33 17.58 16.96 17.69 15.2L18.11 8.54C18.23 6.62 16.7 5 14.78 5L5.21 5Z" fill="#72767C" fill-opacity="1.000000" fill-rule="evenodd"/>
		<path id="Shape" d="M5.83 5.83C5.83 3.53 7.69 1.66 10 1.66C12.3 1.66 14.16 3.53 14.16 5.83L14.16 7.5C14.16 7.96 13.79 8.33 13.33 8.33C12.87 8.33 12.5 7.96 12.5 7.5L12.5 5.83C12.5 4.45 11.38 3.33 10 3.33C8.61 3.33 7.5 4.45 7.5 5.83L7.5 7.5C7.5 7.96 7.12 8.33 6.66 8.33C6.2 8.33 5.83 7.96 5.83 7.5L5.83 5.83Z" fill="#72767C" fill-opacity="1.000000" fill-rule="evenodd"/>
	</g>
</svg>
