<svg width="20.000000" height="20.000000" viewBox="0 0 20 20" fill="none" xmlns="http://www.w3.org/2000/svg" xmlns:xlink="http://www.w3.org/1999/xlink">
	<desc>
			Created with Pixso.
	</desc>
	<defs>
		<clipPath id="clip14_4946">
			<rect id="icons/Fencing/Line" width="20.000000" height="20.000000" fill="white" fill-opacity="0"/>
		</clipPath>
	</defs>
	<g clip-path="url(#clip14_4946)">
		<path id="Shape" d="M18.08 1.91C18.41 2.23 18.41 2.76 18.08 3.08L7.67 13.5C7.34 13.83 6.81 13.83 6.49 13.5C6.16 13.18 6.16 12.65 6.49 12.32L16.91 1.91C17.23 1.58 17.76 1.58 18.08 1.91ZM4.33 15.66C4.66 15.98 4.66 16.51 4.33 16.83L3.08 18.08C2.76 18.41 2.23 18.41 1.91 18.08C1.58 17.76 1.58 17.23 1.91 16.91L3.16 15.66C3.48 15.33 4.01 15.33 4.33 15.66Z" fill="#72767C" fill-opacity="1.000000" fill-rule="evenodd"/>
		<path id="Shape" d="M5.2 16.18C5.43 16.41 5.79 16.5 6.04 16.29C6.42 15.99 6.66 15.52 6.66 15C6.66 14.08 5.92 13.33 5 13.33C4.47 13.33 4.01 13.57 3.7 13.95C3.49 14.2 3.58 14.56 3.81 14.79L5.2 16.18ZM6.01 18.17C5.38 18.37 4.73 18.07 4.26 17.6L2.39 15.73C1.93 15.26 1.62 14.61 1.82 13.98C2.25 12.63 3.51 11.66 5 11.66C6.84 11.66 8.33 13.15 8.33 15C8.33 16.48 7.36 17.74 6.01 18.17Z" fill="#72767C" fill-opacity="1.000000" fill-rule="evenodd"/>
		<path id="Shape" d="M1.91 1.91C1.58 2.23 1.58 2.76 1.91 3.08L12.32 13.5C12.65 13.83 13.18 13.83 13.5 13.5C13.83 13.18 13.83 12.65 13.5 12.32L3.08 1.91C2.76 1.58 2.23 1.58 1.91 1.91ZM15.66 15.66C15.33 15.98 15.33 16.51 15.66 16.83L16.91 18.08C17.23 18.41 17.76 18.41 18.08 18.08C18.41 17.76 18.41 17.23 18.08 16.91L16.83 15.66C16.51 15.33 15.98 15.33 15.66 15.66Z" fill="#72767C" fill-opacity="1.000000" fill-rule="evenodd"/>
		<path id="Shape" d="M14.79 16.18C14.56 16.41 14.2 16.5 13.95 16.29C13.57 15.99 13.33 15.52 13.33 15C13.33 14.08 14.07 13.33 15 13.33C15.52 13.33 15.98 13.57 16.29 13.95C16.5 14.2 16.41 14.56 16.18 14.79L14.79 16.18ZM13.98 18.17C14.61 18.37 15.26 18.07 15.73 17.6L17.6 15.73C18.06 15.26 18.37 14.61 18.17 13.98C17.74 12.63 16.48 11.66 15 11.66C13.15 11.66 11.66 13.15 11.66 15C11.66 16.48 12.63 17.74 13.98 18.17Z" fill="#72767C" fill-opacity="1.000000" fill-rule="evenodd"/>
	</g>
</svg>
