<svg width="20.000000" height="20.000000" viewBox="0 0 20 20" fill="none" xmlns="http://www.w3.org/2000/svg" xmlns:xlink="http://www.w3.org/1999/xlink">
	<desc>
			Created with Pixso.
	</desc>
	<defs>
		<clipPath id="clip14_4967">
			<rect id="icons/Cog/Line" width="20.000000" height="20.000000" fill="white" fill-opacity="0"/>
		</clipPath>
	</defs>
	<g clip-path="url(#clip14_4967)">
		<path id="Shape" d="M16.62 5.9C16.63 5.25 16.38 4.6 15.89 4.1C15.39 3.61 14.74 3.36 14.09 3.37C13.73 3.38 13.37 3.46 13.04 3.62C12.92 3.67 12.8 3.74 12.69 3.82C12.65 3.85 12.59 3.85 12.55 3.83C12.5 3.81 12.47 3.77 12.46 3.72C12.43 3.59 12.4 3.46 12.35 3.33C12.23 2.99 12.04 2.68 11.79 2.42C11.33 1.95 10.7 1.66 10 1.66C9.29 1.66 8.66 1.95 8.2 2.42C7.95 2.68 7.76 2.99 7.63 3.33C7.59 3.46 7.56 3.59 7.53 3.72C7.52 3.77 7.49 3.81 7.44 3.83C7.39 3.85 7.34 3.85 7.3 3.82C7.19 3.74 7.07 3.67 6.95 3.62C6.62 3.46 6.26 3.38 5.9 3.37C5.25 3.36 4.6 3.61 4.1 4.1C3.61 4.6 3.36 5.25 3.37 5.9C3.38 6.26 3.46 6.62 3.62 6.95C3.67 7.07 3.74 7.19 3.82 7.3C3.85 7.34 3.85 7.4 3.83 7.44C3.81 7.49 3.77 7.53 3.72 7.53C3.59 7.56 3.46 7.59 3.33 7.64C2.99 7.76 2.68 7.95 2.42 8.2C1.95 8.66 1.66 9.29 1.66 10C1.66 10.7 1.95 11.33 2.42 11.79C2.68 12.04 2.99 12.23 3.33 12.36C3.46 12.4 3.59 12.43 3.72 12.46C3.77 12.47 3.81 12.5 3.83 12.55C3.85 12.59 3.85 12.65 3.82 12.69C3.74 12.8 3.67 12.92 3.62 13.04C3.46 13.37 3.38 13.73 3.37 14.09C3.36 14.74 3.61 15.39 4.1 15.89C4.6 16.38 5.25 16.63 5.9 16.62C6.26 16.62 6.62 16.53 6.95 16.37C7.07 16.32 7.19 16.25 7.3 16.17C7.34 16.14 7.39 16.14 7.44 16.16C7.49 16.18 7.52 16.22 7.53 16.27C7.56 16.4 7.59 16.53 7.63 16.66C7.76 17 7.95 17.31 8.2 17.57C8.66 18.04 9.29 18.33 10 18.33C10.7 18.33 11.33 18.04 11.79 17.57C12.04 17.31 12.23 17 12.35 16.66C12.4 16.53 12.43 16.4 12.46 16.27C12.47 16.22 12.5 16.18 12.55 16.16C12.59 16.14 12.65 16.14 12.69 16.17C12.8 16.25 12.92 16.32 13.04 16.37C13.37 16.53 13.73 16.62 14.09 16.62C14.74 16.63 15.39 16.38 15.89 15.89C16.38 15.39 16.63 14.74 16.62 14.09C16.61 13.73 16.53 13.37 16.37 13.04C16.32 12.92 16.25 12.8 16.17 12.69C16.14 12.65 16.14 12.59 16.16 12.55C16.18 12.5 16.22 12.47 16.27 12.46C16.4 12.43 16.53 12.4 16.66 12.36C17 12.23 17.31 12.04 17.57 11.79C18.04 11.33 18.33 10.7 18.33 10C18.33 9.29 18.04 8.66 17.57 8.2C17.31 7.95 17 7.76 16.66 7.64C16.53 7.59 16.4 7.56 16.27 7.53C16.22 7.53 16.18 7.49 16.16 7.44C16.14 7.4 16.14 7.34 16.17 7.3C16.25 7.19 16.32 7.07 16.37 6.95C16.53 6.62 16.61 6.26 16.62 5.9ZM14.71 5.28C14.42 4.99 13.97 4.96 13.64 5.19C13.15 5.53 12.5 5.62 11.91 5.37C11.32 5.13 10.92 4.6 10.82 4.01C10.75 3.62 10.4 3.33 10 3.33C9.59 3.33 9.24 3.62 9.17 4.01C9.07 4.6 8.67 5.13 8.08 5.37C7.49 5.62 6.84 5.53 6.34 5.19C6.02 4.96 5.57 4.99 5.28 5.28C4.99 5.57 4.96 6.02 5.18 6.34C5.53 6.84 5.62 7.49 5.37 8.08C5.13 8.67 4.6 9.07 4.01 9.17C3.62 9.24 3.33 9.59 3.33 10C3.33 10.4 3.62 10.75 4.01 10.82C4.6 10.92 5.13 11.32 5.37 11.91C5.62 12.5 5.53 13.15 5.18 13.65C4.96 13.97 4.99 14.42 5.28 14.71C5.57 15 6.02 15.03 6.34 14.81C6.84 14.46 7.49 14.37 8.08 14.62C8.67 14.86 9.07 15.39 9.17 15.98C9.24 16.37 9.59 16.66 10 16.66C10.4 16.66 10.75 16.37 10.82 15.98C10.92 15.39 11.32 14.86 11.91 14.62C12.5 14.37 13.15 14.46 13.64 14.81C13.97 15.03 14.42 15 14.71 14.71C15 14.42 15.03 13.97 14.81 13.65C14.46 13.15 14.37 12.5 14.62 11.91C14.86 11.32 15.39 10.92 15.98 10.82C16.37 10.75 16.66 10.4 16.66 10C16.66 9.59 16.37 9.24 15.98 9.17C15.39 9.07 14.86 8.67 14.62 8.08C14.37 7.49 14.46 6.84 14.81 6.34C15.03 6.02 15 5.57 14.71 5.28Z" fill="#72767C" fill-opacity="1.000000" fill-rule="evenodd"/>
		<path id="Shape" d="M10 11.66C10.92 11.66 11.66 10.92 11.66 10C11.66 9.08 10.92 8.33 10 8.33C9.07 8.33 8.33 9.08 8.33 10C8.33 10.92 9.07 11.66 10 11.66ZM10 13.33C11.84 13.33 13.33 11.84 13.33 10C13.33 8.15 11.84 6.66 10 6.66C8.15 6.66 6.66 8.15 6.66 10C6.66 11.84 8.15 13.33 10 13.33Z" fill="#72767C" fill-opacity="1.000000" fill-rule="evenodd"/>
	</g>
</svg>
