<svg width="109.000000" height="31.000000" viewBox="0 0 109 31" fill="none" xmlns="http://www.w3.org/2000/svg" xmlns:xlink="http://www.w3.org/1999/xlink">
	<desc>
			Created with Pixso.
	</desc>
	<defs/>
	<rect id="logo" rx="6.000000" width="26.913973" height="26.850012" transform="translate(0.000000 2.075195)" fill="#A162F7" fill-opacity="1.000000"/>
	<rect id="logo" width="16.913973" height="14.850012" transform="translate(5.000000 8.075195)" fill="#FFFFFF" fill-opacity="0"/>
	<path id="Vector 1" d="M10.84 19.98L9.12 21.7C6.25 20.27 2.09 13.81 7.97 8.07L13.5 13.45L18.88 8.07C21.39 9.94 24.62 16.68 17.95 21.7L16.08 19.91C17.88 19.02 20.95 16.13 18.88 11.66L13.5 16.9L8.12 11.66C7.21 13.33 6.48 17.34 10.84 19.98Z" fill="#FFFFFF" fill-opacity="1.000000" fill-rule="evenodd"/>
	<path id="Motiv." d="M86.43 9.98Q86.88 10.24 87.49 10.24Q88.1 10.24 88.55 9.97Q88.72 9.88 88.86 9.74Q89.11 9.51 89.24 9.24Q89.41 8.89 89.41 8.47Q89.41 8.03 89.23 7.69Q89.1 7.42 88.86 7.21Q88.73 7.09 88.58 7Q88.12 6.72 87.49 6.72Q86.86 6.72 86.4 6.99Q86.24 7.08 86.1 7.21Q85.88 7.42 85.74 7.67Q85.56 8.02 85.56 8.47Q85.56 8.9 85.73 9.25Q85.87 9.52 86.1 9.74Q86.25 9.88 86.43 9.98ZM40.54 7.2L40.54 24L43.61 24L43.61 12.41L48.3 21.59L50.72 21.59L55.4 12.41L55.4 24L58.47 24L58.47 7.2L54.82 7.2L49.54 17.85L44.19 7.2L40.54 7.2ZM78.03 23.09Q79.16 24 81.03 24L83.12 24L83.12 21.38L81.63 21.38Q80.72 21.38 80.34 21.06Q79.97 20.73 79.97 19.86L79.97 14.66L83.19 14.66L83.19 12.09L79.97 12.09L79.97 8.9L77.26 8.9L76.9 12.09L74.86 12.09L74.86 14.66L76.9 14.66L76.9 19.84Q76.9 22.17 78.03 23.09ZM64.82 23.77Q65.99 24.28 67.37 24.28Q68.64 24.28 69.73 23.85Q70.11 23.69 70.47 23.49Q71.13 23.11 71.66 22.6Q72.24 22.03 72.66 21.3Q72.68 21.27 72.7 21.24Q73.47 19.85 73.47 18.04Q73.47 16.24 72.7 14.87Q72.68 14.83 72.66 14.8Q72.22 14.01 71.59 13.42Q71.09 12.95 70.48 12.6Q70.14 12.4 69.78 12.25Q68.68 11.8 67.4 11.8Q66.03 11.8 64.87 12.3Q64.57 12.43 64.28 12.6Q63.71 12.93 63.24 13.36Q62.57 13.97 62.09 14.8Q62.06 14.86 62.02 14.93Q61.28 16.28 61.28 18.04Q61.28 19.85 62.05 21.24Q62.06 21.27 62.08 21.3Q62.53 22.08 63.16 22.68Q63.66 23.14 64.26 23.49Q64.54 23.65 64.82 23.77ZM85.95 12.09L85.95 24L89.02 24L89.02 12.09L85.95 12.09ZM91.09 12.09L95.45 24L99.17 24L103.57 12.09L100.35 12.09L97.33 21.09L94.3 12.09L91.09 12.09ZM68.33 21.46Q67.88 21.62 67.37 21.62Q66.86 21.62 66.41 21.45Q65.8 21.23 65.29 20.72Q64.42 19.82 64.42 18.04Q64.42 16.27 65.29 15.37Q65.77 14.88 66.36 14.65Q66.84 14.47 67.4 14.47Q67.85 14.47 68.26 14.6Q68.91 14.81 69.46 15.37Q69.46 15.37 69.46 15.38Q70.35 16.27 70.35 18.04Q70.35 19.81 69.46 20.71Q69.46 20.72 69.46 20.72Q68.95 21.24 68.33 21.46ZM104.85 23.91Q105.29 24.16 105.87 24.16Q106.44 24.16 106.88 23.92Q107.08 23.81 107.25 23.64Q107.54 23.35 107.67 23.01Q107.79 22.71 107.79 22.36Q107.79 21.95 107.64 21.61Q107.5 21.31 107.25 21.07Q107.08 20.9 106.88 20.78Q106.44 20.54 105.87 20.54Q105.29 20.54 104.85 20.79Q104.66 20.9 104.49 21.07Q104.24 21.31 104.1 21.61Q103.95 21.95 103.95 22.36Q103.95 22.71 104.07 23.01Q104.2 23.35 104.49 23.64Q104.66 23.8 104.85 23.91Z" fill="#1F2128" fill-opacity="1.000000" fill-rule="evenodd"/>
</svg>
