<svg width="19.000000" height="24.000000" viewBox="0 0 19 24" fill="none" xmlns="http://www.w3.org/2000/svg" xmlns:xlink="http://www.w3.org/1999/xlink">
	<desc>
			Created with Pixso.
	</desc>
	<defs/>
	<path id="Vector" d="M16.19 13.44L16.19 9.62C16.19 7.91 15.59 6.27 14.49 4.96C13.39 3.66 11.87 2.79 10.19 2.51L10.19 1.2C10.19 0.88 10.07 0.57 9.84 0.35C9.62 0.12 9.31 0 9 0C8.68 0 8.37 0.12 8.15 0.35C7.92 0.57 7.79 0.88 7.79 1.2L7.79 2.51C6.12 2.79 4.6 3.66 3.5 4.96C2.4 6.27 1.8 7.91 1.79 9.62L1.79 13.44C1.09 13.69 0.49 14.15 0.06 14.76C-0.37 15.37 -0.6 16.09 -0.61 16.84L-0.61 19.24C-0.61 19.56 -0.48 19.87 -0.25 20.09C-0.03 20.32 0.28 20.45 0.6 20.45L4.36 20.45C4.64 21.46 5.24 22.36 6.08 23.01C6.92 23.65 7.94 24 9 24C10.05 24 11.07 23.65 11.91 23.01C12.75 22.36 13.35 21.46 13.63 20.45L17.39 20.45C17.71 20.45 18.02 20.32 18.24 20.09C18.47 19.87 18.6 19.56 18.6 19.24L18.6 16.84C18.59 16.09 18.36 15.37 17.93 14.76C17.5 14.15 16.9 13.69 16.19 13.44ZM4.19 9.62C4.19 8.34 4.7 7.12 5.6 6.22C6.5 5.31 7.72 4.81 9 4.81C10.27 4.81 11.49 5.31 12.39 6.22C13.29 7.12 13.79 8.34 13.79 9.62L13.79 13.23L4.19 13.23L4.19 9.62ZM9 21.65C8.58 21.65 8.17 21.53 7.8 21.32C7.44 21.11 7.14 20.81 6.93 20.45L11.06 20.45C10.85 20.81 10.55 21.11 10.19 21.32C9.82 21.53 9.41 21.65 9 21.65ZM16.19 18.04L1.79 18.04L1.79 16.84C1.79 16.52 1.92 16.21 2.15 15.99C2.37 15.76 2.68 15.63 3 15.63L15 15.63C15.31 15.63 15.62 15.76 15.84 15.99C16.07 16.21 16.19 16.52 16.19 16.84L16.19 18.04Z" fill="#7C7C8D" fill-opacity="1.000000" fill-rule="nonzero"/>
</svg>
